PathFileType	4	(X/Y/Z)	D:\TRACE\spotREDO_2-26-24\spot_justArm_Motion_1_5-v60.trc
DataRate	CameraRate	NumFrames	NumMarkers	Units	OrigDataRate	OrigDataStartFrame	OrigNumFrames
100.00	100.00	      38	9	mm	100.00	6126	      7000
Frame#	Time	front left toe			Front right toe			aft left toe			aft right toe			Arm			FL body			FR body			AL Body			AR Body			
		X1	Y1	Z1	X2	Y2	Z2	X3	Y3	Z3	X4	Y4	Z4	X5	Y5	Z5	X6	Y6	Z6	X7	Y7	Z7	X8	Y8	Z8	X9	Y9	Z9	

6126	61.250	-271.40738	21.76359	-156.45407	156.65427	23.38081	-135.64255	-292.94818	11.91594	464.28629	124.30235	17.97301	422.29343	-98.72079	693.51422	-811.85864	-137.71877	545.81537	-216.37776	18.23506	550.32776	-211.45667	-172.96268	560.68738	667.11523	-25.06611	561.11438	673.52924	
6127	61.260	-270.84610	21.74861	-156.17946	157.51666	23.64200	-135.25302	-292.30475	11.49933	464.52588	124.78251	17.77950	422.33789	-99.05094	693.33289	-811.81543	-137.56779	545.96320	-216.25957	18.38386	550.45819	-211.41200	-172.79187	560.42493	667.18378	-24.89061	560.77551	673.66119	
6128	61.270	-270.27228	21.74152	-155.97968	157.48894	23.42519	-135.39029	-291.74902	11.13370	464.74084	125.58762	17.80592	422.44806	-99.38152	692.96588	-811.68994	-137.49889	546.20117	-216.09248	18.44822	550.54358	-211.35260	-172.67239	560.18921	667.14777	-24.63427	560.34412	673.77069	
6129	61.280	-269.81769	21.80831	-155.79218	157.87904	23.81450	-135.29309	-291.14069	10.90662	464.85495	126.05521	17.73676	422.49243	-99.57480	692.66400	-811.49390	-137.42030	546.40515	-215.93756	18.55380	550.62109	-211.26947	-172.25632	559.94812	667.34460	-24.09363	559.88617	673.94629	
6130	61.290	-269.36945	21.98982	-156.02834	158.95378	24.52142	-134.66896	-290.28268	10.61717	464.93552	126.51358	17.59082	422.50671	-100.09802	692.31268	-811.45618	-137.23645	546.55640	-215.76442	18.62547	550.72028	-211.18993	-171.61757	559.88367	667.66931	-23.83784	559.65594	674.01129	
6131	61.300	-268.72165	22.04069	-156.17058	159.22423	24.52642	-134.69774	-289.98483	10.56696	464.97122	127.16080	17.17035	422.65591	-100.30752	691.84851	-811.30737	-137.09840	546.56537	-215.66705	18.71041	550.76270	-211.16408	-171.43387	559.40875	667.50952	-23.33666	559.36285	674.04010	
6132	61.310	-268.35175	22.17927	-155.48111	159.60767	24.01615	-135.16966	-289.48767	10.44957	465.03970	128.31207	17.07921	422.68140	-100.37941	691.41272	-811.14172	-137.06471	546.66058	-215.47449	18.74552	550.82379	-211.12782	-170.75771	559.03101	667.84058	-22.94034	559.03888	674.12268	
6133	61.320	-267.80630	22.07997	-155.28989	160.45677	23.75411	-135.35983	-288.85468	10.23180	464.96567	128.85446	16.90124	422.69034	-100.42840	691.03046	-811.08942	-137.04886	546.72650	-215.31432	18.85154	550.89984	-211.06886	-170.49239	558.52319	667.51923	-22.40022	558.56323	674.20905	
6134	61.330	-267.03931	21.76568	-155.47684	161.08600	24.31202	-135.04555	-288.07574	9.95279	464.96945	128.90974	16.68554	422.70944	-100.37703	690.80267	-810.88843	-136.93344	546.89221	-215.22966	18.92009	550.96417	-211.03671	-170.03708	558.17798	667.59460	-21.61749	558.09637	674.25995	
6135	61.340	-266.42090	21.79857	-155.31599	161.90694	25.21540	-134.69273	-287.62927	9.86009	465.19025	129.58437	16.50146	422.84946	-100.22679	690.51752	-810.57251	-136.76982	547.10944	-215.08545	19.13667	551.10834	-210.94009	-169.26677	558.27380	668.28656	-21.30933	557.89325	674.24622	
6136	61.350	-265.66489	21.95706	-155.13362	161.97060	24.48998	-135.23485	-286.94467	9.76610	465.21741	130.49098	16.00882	422.98926	-100.08717	690.28461	-810.44025	-136.62289	547.37079	-215.00320	19.39780	551.21002	-210.79715	-168.83040	558.01294	668.37225	-20.74494	557.64697	674.33954	
6137	61.360	-265.17966	22.10920	-155.10008	162.55612	24.79880	-135.07509	-286.04822	9.29934	465.50034	131.39249	16.11415	422.98889	-99.94442	690.13684	-810.38287	-136.39934	547.64209	-214.82867	19.54249	551.27118	-210.68425	-168.24641	557.73804	668.50458	-20.03521	557.35175	674.45844	
6138	61.370	-264.56665	22.16723	-155.12585	163.30356	24.61569	-135.10115	-285.32776	9.16472	465.46686	131.66418	15.82401	422.91870	-99.76453	690.05188	-810.30292	-136.05441	547.82471	-214.65361	19.78006	551.35956	-210.55780	-167.78601	557.48083	668.56549	-19.65789	557.06598	674.49164	
6139	61.380	-264.04752	22.45755	-154.92520	163.99783	24.64688	-134.98280	-284.91693	9.21030	465.38330	132.09065	15.76362	422.88947	-99.38943	689.91400	-810.24561	-135.82350	548.02283	-214.59796	19.98249	551.51819	-210.47816	-167.13994	557.17792	668.78925	-18.97562	556.70264	674.62061	
6140	61.390	-263.17520	22.24868	-154.97900	164.72603	24.75375	-135.01723	-283.95639	8.53250	465.66147	133.42125	15.82611	423.18109	-99.11512	689.84949	-810.28430	-135.57489	548.28998	-214.58817	20.34207	551.82458	-210.38678	-166.48517	556.96185	668.88879	-18.52794	556.47192	674.80469	
6141	61.400	-262.51135	22.35534	-154.87886	165.59108	24.90889	-135.00775	-283.44315	8.40153	465.58902	133.86545	15.28833	423.17886	-98.79883	689.92407	-810.34729	-135.26160	548.47351	-214.36188	20.81364	551.99188	-210.12439	-165.84427	556.61987	668.87030	-18.01892	556.19934	674.85919	
6142	61.410	-261.80826	22.53452	-154.74908	166.28168	25.05741	-134.86655	-282.85880	8.20746	465.73294	134.68553	15.28975	423.13425	-98.13115	689.91443	-810.00446	-134.70306	548.68451	-214.30205	21.36803	552.38525	-210.27080	-165.72893	556.45831	669.03381	-17.38030	555.94995	674.92236	
6143	61.420	-261.05804	22.62827	-154.79724	166.81664	25.09279	-134.74525	-282.07513	7.98012	465.84137	135.21718	15.23396	423.13556	-97.55836	689.98602	-810.05518	-134.09993	548.91437	-214.04308	21.71705	552.48132	-210.22768	-165.20668	556.14679	669.19031	-16.86340	555.48840	675.03430	
6144	61.430	-260.30045	22.70754	-154.80801	167.73810	25.28555	-134.49004	-281.30377	7.72367	465.95013	136.34543	15.32096	423.36032	-97.02715	690.06543	-809.90936	-133.40990	549.13708	-213.92825	22.27483	552.68756	-210.12173	-164.73126	555.90192	669.24884	-16.56893	555.21948	675.15460	
6145	61.440	-259.56125	22.68325	-154.93840	168.49048	25.45211	-134.24194	-280.48355	7.58722	466.05740	136.78497	14.94883	423.44211	-96.66724	690.28296	-809.92273	-132.98662	549.29364	-213.98251	23.10970	552.98828	-209.87970	-164.28871	555.26605	668.96851	-16.24930	554.94263	675.24988	
6146	61.450	-259.03375	22.88067	-154.77934	169.13510	25.33998	-134.46219	-279.68817	7.43018	466.10651	137.36867	14.56110	423.42200	-95.86903	690.54614	-809.74677	-132.36064	549.53394	-213.97543	23.59771	553.29883	-209.73178	-163.74373	555.15332	669.42706	-15.51605	554.72052	675.31775	
6147	61.460	-258.00711	22.89464	-154.54112	170.01970	25.07014	-134.82916	-278.99869	7.28385	466.10806	138.53542	14.65733	423.49347	-95.40314	690.77362	-809.67273	-131.61894	549.85413	-213.83226	24.02472	553.49957	-209.64583	-163.27397	554.81531	669.54913	-15.05094	554.41339	675.37006	
6148	61.470	-256.95386	22.88737	-154.40927	170.81644	25.13521	-134.53337	-278.24265	7.06876	466.15097	139.19601	14.49968	423.55670	-95.11944	690.89789	-809.63196	-131.10362	550.10883	-213.71809	24.68677	553.71021	-209.62189	-162.73776	554.44135	669.60315	-14.49398	553.92462	675.61316	
6149	61.480	-256.34686	22.97631	-154.62129	171.61664	25.15685	-134.35593	-277.53482	6.74757	466.14011	139.52618	14.24311	423.59201	-94.12407	690.94574	-809.03882	-130.44688	550.22705	-213.63289	25.53059	553.88660	-209.46799	-161.69069	554.03619	669.69031	-14.10630	553.55090	675.63507	
6150	61.490	-255.59366	22.95495	-154.31454	172.18660	25.82080	-134.24516	-276.79916	6.38360	466.23645	140.52844	13.92589	423.66937	-93.86790	691.11914	-809.11646	-129.64706	550.34143	-213.50113	26.28798	554.06030	-209.36583	-161.96077	553.61816	669.19702	-13.60877	553.20758	675.69550	
6151	61.500	-254.82405	23.10765	-154.33034	172.94717	25.68965	-134.05324	-275.86777	6.13574	466.48175	141.75571	13.87356	423.85049	-93.55640	691.33813	-809.07886	-128.94310	550.59351	-213.54126	27.15552	554.21973	-209.26746	-161.09221	553.49805	669.81677	-13.20750	552.96698	675.82727	
6152	61.510	-253.96001	23.47797	-154.08926	173.82518	25.99756	-133.97528	-275.02341	5.86273	466.53494	142.02324	13.69307	423.85513	-93.22617	691.49518	-808.99078	-128.06389	550.80640	-213.51967	27.59008	554.39075	-209.15479	-160.59335	553.20715	669.84540	-12.66098	552.67902	675.92920	
6153	61.520	-253.14694	23.33568	-154.02289	175.06677	25.94634	-134.04701	-274.12903	5.75792	466.92426	142.77521	13.52720	423.96606	-92.71536	691.63660	-808.83984	-127.47040	550.89484	-213.39682	28.46387	554.62384	-208.98898	-159.75777	552.85767	670.04443	-11.96549	552.31415	676.07269	
6154	61.530	-252.13788	23.06465	-153.96518	175.44713	26.10486	-134.05647	-273.41711	5.58928	466.70468	143.98322	13.48684	424.06998	-92.42166	691.78491	-808.72552	-126.60957	551.01691	-213.16376	29.53152	554.74164	-208.72751	-159.27879	552.64520	670.03192	-11.39607	552.08282	676.18103	
6155	61.540	-251.19095	23.12368	-153.86932	176.53468	25.84463	-133.92101	-272.49588	5.32612	466.63531	144.71985	13.22017	423.96149	-92.00040	691.82440	-808.77173	-125.83291	551.37128	-213.17078	30.11265	555.05322	-208.63785	-158.75290	552.32019	670.11182	-10.68057	551.88806	676.37732	
6156	61.550	-250.58868	23.52910	-154.27031	177.28770	26.03228	-133.58728	-271.89270	5.41043	466.57126	145.26620	13.03833	423.98520	-91.66221	691.88361	-808.66541	-124.95602	551.61041	-213.11838	30.88571	555.27734	-208.69595	-158.13986	552.07202	670.24481	-10.10140	551.61255	676.48969	
6157	61.560	-249.65172	23.52345	-153.96101	178.18805	25.97816	-133.63165	-270.96634	5.31486	466.48215	146.46638	13.19313	424.13779	-91.63673	692.09723	-808.91864	-124.23411	551.80554	-213.06873	31.52325	555.42041	-208.44577	-157.37808	551.94147	670.29034	-9.40973	551.43066	676.45221	
6158	61.570	-248.78777	23.64840	-153.94823	179.16487	26.12013	-133.79857	-269.93539	5.10431	466.55362	147.19507	12.98204	424.22559	-91.22897	692.27374	-808.76270	-123.60445	551.85059	-212.95096	32.34201	555.48212	-208.30060	-156.59329	551.74060	670.36566	-8.30892	551.16980	676.48236	
6159	61.580	-247.83218	23.54004	-153.69086	179.82341	26.22381	-133.63155	-269.12790	5.10399	466.54279	148.04388	12.85781	424.18588	-90.94056	692.27954	-808.06995	-122.76568	551.68695	-212.90253	33.32391	555.64117	-208.39851	-155.65677	551.58997	670.41803	-7.45491	551.12079	676.87250	
6160	61.590	-247.14117	23.61909	-153.54527	180.81358	26.38134	-133.49861	-268.18674	4.85055	466.67978	149.29468	12.79243	424.39404	-90.83855	692.29755	-807.31586	-122.03310	551.45367	-212.92145	33.80014	555.40735	-208.47693	-154.97661	551.46167	670.49957	-6.78990	551.02911	676.60150	
6161	61.600	-246.12161	23.52735	-153.63277	181.90176	26.49422	-133.21455	-267.22891	4.61490	466.81519	149.79404	12.59520	424.30927	-90.64927	692.43140	-805.95306	-121.34257	551.19641	-213.04085	34.71474	555.10120	-208.54350	-154.16107	551.35596	670.40186	-5.91564	550.90704	676.49817	
6162	61.610	-245.33243	23.77594	-153.62962	182.57173	26.69366	-133.16765	-266.39130	4.43266	466.82602	150.83095	12.63175	424.30478	-90.20111	693.06561	-803.90460	-120.37026	550.84619	-213.12256	35.60489	554.80609	-208.70430	-153.35013	551.39844	670.21912	-5.28353	550.86584	676.31134	
6163	61.620	-244.59711	23.82188	-153.69337	183.84119	26.57164	-133.27382	-265.50137	4.22934	466.73203	152.14426	12.69985	424.51810	-90.11805	693.84784	-801.08722	-119.42879	550.37982	-213.37271	36.53987	554.29364	-208.77507	-152.54477	551.34717	669.89288	-4.47478	550.94641	676.07135	
